<svg xmlns="http://www.w3.org/2000/svg" xmlns:svg="http://www.w3.org/2000/svg" id="svg4142" width="28" height="32" version="1.1" viewBox="0 0 28 32"><metadata id="metadata4147"/><g id="layer1" transform="translate(0,-1020.3622)"><rect id="rect4741" width="28" height="32" x="0" y="1020.362" fill="#eee" fill-opacity="1" fill-rule="evenodd" stroke="none" stroke-dasharray="none" stroke-dashoffset="478.437" stroke-linecap="butt" stroke-linejoin="miter" stroke-miterlimit="4" stroke-opacity="1" stroke-width="2.745" opacity="1"/><rect id="rect4142" width="28" height="1" x="0" y="1020.362" fill="#fff" fill-opacity=".07" fill-rule="evenodd" stroke="none" stroke-dasharray="none" stroke-dashoffset="478.437" stroke-linecap="butt" stroke-linejoin="miter" stroke-miterlimit="4" stroke-opacity="1" stroke-width="2.745" opacity="1"/><path id="path4096" fill="#e74c3c" fill-opacity="1" fill-rule="evenodd" stroke="none" stroke-width=".014" d="m 14.500073,1042.8622 c 3.865917,0 6.999926,-3.134 6.999926,-7 0,-3.866 -3.134009,-7 -6.999926,-7 -3.866062,0 -7.0000733,3.134 -7.0000733,7 0,3.866 3.1340113,7 7.0000733,7"/><path id="path4098" fill="#9f1d2b" fill-opacity="1" fill-rule="evenodd" stroke="none" stroke-width=".014" d="m 11.348347,1032.0689 c -0.161113,0 -0.322471,0.062 -0.444723,0.1851 l -0.01105,0.011 c -0.244524,0.2445 -0.244524,0.6449 0,0.8894 l 2.707011,2.707 -2.707011,2.7098 c -0.244453,0.2444 -0.244453,0.6422 0,0.8866 l 0.01105,0.014 c 0.244435,0.2446 0.64494,0.2446 0.889446,0 l 2.707012,-2.7069 2.707012,2.7069 c 0.244451,0.2446 0.64494,0.2446 0.889447,0 l 0.01105,-0.014 c 0.244433,-0.2444 0.244433,-0.6422 0,-0.8866 l -2.707012,-2.7098 2.707011,-2.707 c 0.244434,-0.2445 0.244507,-0.645 0,-0.8894 l -0.01105,-0.011 c -0.244578,-0.2445 -0.644995,-0.2445 -0.889446,0 l -2.707012,2.707 -2.707012,-2.707 c -0.122253,-0.1223 -0.28361,-0.1851 -0.444723,-0.1851 z"/></g></svg>