<svg xmlns="http://www.w3.org/2000/svg" xmlns:svg="http://www.w3.org/2000/svg" id="svg4142" width="28" height="32" version="1.1" viewBox="0 0 28 32"><metadata id="metadata4147"/><g id="layer1" transform="translate(0,-1020.3622)"><rect id="rect4741" width="28" height="32" x="0" y="1020.362" fill="#eee" fill-opacity="1" fill-rule="evenodd" stroke="none" stroke-dasharray="none" stroke-dashoffset="478.437" stroke-linecap="butt" stroke-linejoin="miter" stroke-miterlimit="4" stroke-opacity="1" stroke-width="2.745" opacity="1"/><circle id="path2994" cx="1036.362" cy="13" r="12" fill="#eceff1" fill-opacity=".1" stroke="none" stroke-dasharray="none" stroke-linejoin="miter" stroke-miterlimit="4" stroke-opacity="1" stroke-width=".5" transform="matrix(0,1,-1,0,0,0)"/><rect id="rect4959" width="28" height="1" x="0" y="1020.362" fill="#fff" fill-opacity=".07" fill-rule="evenodd" stroke="none" stroke-dasharray="none" stroke-dashoffset="478.437" stroke-linecap="butt" stroke-linejoin="miter" stroke-miterlimit="4" stroke-opacity="1" stroke-width="2.745" opacity="1"/><path id="path4417" fill="#f1c40f" fill-opacity="1" fill-rule="evenodd" stroke="none" stroke-width=".013" d="m 14.500027,1042.8622 c 3.866011,0 7.000035,-3.134 7.000035,-7 0,-3.866 -3.134024,-7 -7.000035,-7 -3.865995,0 -7.000027,3.134 -7.000027,7 0,3.866 3.134032,7 7.000027,7"/><path id="path4419" fill="#f1c40f" fill-opacity="1" fill-rule="evenodd" stroke="none" stroke-width=".013" d="m 14.500064,1042.3622 c 3.589845,0 6.499967,-2.9101 6.499967,-6.5 0,-3.5899 -2.910122,-6.5 -6.499967,-6.5 -3.589829,0 -6.5000332,2.9101 -6.5000332,6.5 0,3.5899 2.9102042,6.5 6.5000332,6.5"/></g></svg>