<svg xmlns="http://www.w3.org/2000/svg" xmlns:svg="http://www.w3.org/2000/svg" id="svg4142" width="28" height="32" version="1.1" viewBox="0 0 28 32"><metadata id="metadata4147"/><g id="layer1" transform="translate(0,-1020.3622)"><rect id="rect4741" width="28" height="32" x="0" y="1020.362" fill="#eee" fill-opacity="1" fill-rule="evenodd" stroke="none" stroke-dasharray="none" stroke-dashoffset="478.437" stroke-linecap="butt" stroke-linejoin="miter" stroke-miterlimit="4" stroke-opacity="1" stroke-width="2.745" opacity="1"/><rect id="rect4959" width="28" height="1" x="0" y="1020.362" fill="#fff" fill-opacity=".07" fill-rule="evenodd" stroke="none" stroke-dasharray="none" stroke-dashoffset="478.437" stroke-linecap="butt" stroke-linejoin="miter" stroke-miterlimit="4" stroke-opacity="1" stroke-width="2.745" opacity="1"/><path id="path4419" fill="#f1c40f" fill-opacity="1" fill-rule="evenodd" stroke="none" stroke-width=".128" d="m 14.500036,1042.8622 c 3.865988,0 6.999964,-3.1339 6.999964,-7 0,-3.866 -3.133976,-7 -6.999964,-7 -3.86597,0 -7.0000358,3.134 -7.0000358,7 0,3.8661 3.1340658,7 7.0000358,7"/><path id="path4421" fill="#975914" fill-opacity="1" fill-rule="evenodd" stroke="none" stroke-width=".128" d="m 10.033669,1035.2253 h 8.932752 c 0.345745,0 0.628571,0.2828 0.628571,0.6286 v 0.016 c 0,0.3458 -0.282826,0.6286 -0.628571,0.6286 h -8.932752 c -0.3457616,0 -0.628571,-0.2828 -0.628571,-0.6286 v -0.016 c 0,-0.3458 0.2828094,-0.6286 0.628571,-0.6286"/></g></svg>