<svg xmlns="http://www.w3.org/2000/svg" xmlns:svg="http://www.w3.org/2000/svg" xmlns:xlink="http://www.w3.org/1999/xlink" id="svg2857" width="72" height="21" version="1.1"><defs id="defs2859"><linearGradient id="linearGradient3864"><stop id="stop3866" offset="0" stop-color="#a248af" stop-opacity="1"/><stop id="stop3868" offset="1" stop-color="#a86ab1" stop-opacity="1"/></linearGradient><clipPath id="clipPath3860" clipPathUnits="userSpaceOnUse"><rect id="rect3862" width="72" height="21" x="0" y="0" fill="#000" fill-opacity="1" fill-rule="nonzero" stroke="none" stroke-width="2" color="#000" display="inline" enable-background="new" opacity=".7" overflow="visible" ry="10.5" visibility="visible" style="marker:none"/></clipPath><linearGradient id="linearGradient3870" x1="464.643" x2="464.643" y1="783.362" y2="803.362" gradientTransform="translate(-444.64286,-782.36221)" gradientUnits="userSpaceOnUse" xlink:href="#linearGradient3864"/><linearGradient id="linearGradient3789" x1="464.643" x2="464.643" y1="783.362" y2="803.362" gradientTransform="translate(-444.64286,-782.36221)" gradientUnits="userSpaceOnUse" xlink:href="#linearGradient3864"/><linearGradient id="linearGradient3808" x1="464.643" x2="464.643" y1="783.362" y2="803.362" gradientTransform="translate(-444.64286,-782.36221)" gradientUnits="userSpaceOnUse" xlink:href="#linearGradient3864"/><filter id="filter930" width="1.072" height="1.072" x="-.036" y="-.036" color-interpolation-filters="sRGB"><feGaussianBlur id="feGaussianBlur932" stdDeviation=".225"/></filter></defs><metadata id="metadata2862"/><g id="layer1" transform="translate(-444.64286,-782.36218)"><path id="path900" fill="#fff" fill-opacity=".2" d="M 18.019531 10.914062 A 9.5 9.5 0 0 0 18 11.5 A 9.5 9.5 0 0 0 27.5 21 L 35 21 L 37 21 L 44.5 21 A 9.5 9.5 0 0 0 54 11.5 A 9.5 9.5 0 0 0 53.980469 11.085938 A 9.5 9.5 0 0 1 44.5 20 L 37 20 L 35 20 L 27.5 20 A 9.5 9.5 0 0 1 18.019531 10.914062 z" transform="translate(444.64286,782.36218)"/><path id="path872" fill="#c2c2c2" fill-opacity="1" d="m 472.14286,783.36218 a 9.5,9.5 0 0 0 -9.5,9.5 9.5,9.5 0 0 0 9.5,9.5 h 7.5 2 7.5 a 9.5,9.5 0 0 0 9.5,-9.5 9.5,9.5 0 0 0 -9.5,-9.5 h -7.5 -2 z"/><rect id="rect934" width="15" height="15" x="464.643" y="786.862" fill="#000" fill-opacity=".1" fill-rule="nonzero" stroke="none" stroke-opacity="1" stroke-width="1.765" color="#000" display="inline" enable-background="new" filter="url(#filter930)" opacity="1" overflow="visible" ry="7.392" visibility="visible" style="marker:none"/><rect id="rect912" width="15" height="15" x="464.643" y="785.862" fill="#000" fill-opacity=".2" fill-rule="nonzero" stroke="none" stroke-opacity="1" stroke-width="1.765" color="#000" display="inline" enable-background="new" filter="url(#filter930)" opacity="1" overflow="visible" ry="7.392" visibility="visible" style="marker:none"/><rect id="rect3872" width="15" height="15" x="464.643" y="785.362" fill="#f2f2f2" fill-opacity="1" fill-rule="nonzero" stroke="none" stroke-opacity="1" stroke-width="1.765" color="#000" display="inline" enable-background="new" opacity="1" overflow="visible" ry="7.392" visibility="visible" style="marker:none"/><path id="path902" fill="#000" fill-opacity=".1" d="M 27.5 1 A 9.5 9.5 0 0 0 18 10.5 A 9.5 9.5 0 0 0 18.019531 10.914062 A 9.5 9.5 0 0 1 27.5 2 L 35 2 L 37 2 L 44.5 2 A 9.5 9.5 0 0 1 53.980469 11.085938 A 9.5 9.5 0 0 0 54 10.5 A 9.5 9.5 0 0 0 44.5 1 L 37 1 L 35 1 L 27.5 1 z" transform="translate(444.64286,782.36218)"/><path id="rect936" fill="#fff" fill-opacity=".2" fill-rule="nonzero" stroke="none" stroke-opacity="1" stroke-width="1.765" d="m 472.03545,785.36218 c -4.09536,0 -7.39258,3.29722 -7.39258,7.39258 v 0.21484 c 0,0.1326 0.0127,0.26174 0.0195,0.39258 0.20406,-3.91019 3.41029,-7 7.37305,-7 h 0.21484 c 3.96276,0 7.16899,3.08981 7.37305,7 0.007,-0.13084 0.0195,-0.25998 0.0195,-0.39258 v -0.21484 c 0,-4.09536 -3.29722,-7.39258 -7.39258,-7.39258 z" color="#000" display="inline" enable-background="new" opacity="1" overflow="visible" visibility="visible" style="marker:none"/></g></svg>